:SAMPLES-PER-SECOND 30
:FULLY-SPECIFIED
:DEGREES
222
root  34.8306761 36.49152921 -14.97645641 8.426333427 -6.328344822 4.281136513
lowerback  -6.830109596 -1.802960038 -1.716370106
upperback  -4.227202892 -1.813339949 -3.977230072
thorax  -0.6107389927 -0.7154070139 -3.253730059
lowerneck  -0.5411829948 -18.08760071 -12.87279987
upperneck  9.735619545 -25.38619804 14.99580002
head  6.625229836 -12.10169983 4.450449944
lclavicle  0 -4.497500157e-015 -2.743230041e-014
lhumerus  -49.87239838 29.95700073 61.48189926
lradius  -2.057401616e-006 -6.507048965e-006 30.3925972
lwrist  4.824992743e-007 -3.790274832e-007 -28.8567009
lhand  -0 -37.23020172 -10.63659954
lfingers  90 7.125020027 -90
lthumb  94.96241608 -25.46131841 101.4184844
rclavicle  0 -4.497500157e-015 -2.743230041e-014
rhumerus  -37.06520081 -37.8246994 8.458488464
rradius  -5.16745672e-007 2.214343908e-008 62.82139969
rwrist  -0.0001011603963 -0.001600692281 -176.6109924
rhand  -1.770724771e-031 4.376100063 -7.50936985
rfingers  -90 -7.125020027 -90
rthumb  -85.06550427 -8.550245295 -59.8562009
rfemur  -13.29808426 16.36227226 12.25665379
rtibia  -1.784348726 -1.584089398 22.13894463
rfoot  -0.149041757 -22.65374184 -35.33363724
rtoes  3.83755572 19.64318954 -101.2846916
lfemur  -8.544026375 -17.35131073 -21.14943886
ltibia  2.518123388 -1.852180839 15.35027599
lfoot  1.28859663 -22.33423424 38.6702652
ltoes  -8.65149572 -18.10144517 -116.0917717
223
root  34.83009038 36.49272769 -14.97679733 8.393966675 -6.296144962 4.2783041
lowerback  -6.836740494 -1.807770014 -1.737829804
upperback  -4.228616714 -1.819820046 -3.946449995
thorax  -0.6099770069 -0.7174247503 -3.210180044
lowerneck  -0.7497839928 -17.93969917 -12.86760044
upperneck  9.905619621 -25.17589951 14.93449974
head  6.674940109 -11.98690033 4.441040039
lclavicle  0 -4.497500157e-015 -2.743230041e-014
lhumerus  -49.89550018 29.95630074 61.56719971
lradius  -2.057401616e-006 -6.507048965e-006 30.42519951
lwrist  4.824992743e-007 -3.790274832e-007 -28.75779915
lhand  -4.433634775e-031 -37.20849991 -10.68550014
lfingers  90 7.125020027 -90
lthumb  94.96296558 -25.50998002 101.3999255
rclavicle  0 -4.497500157e-015 -2.743230041e-014
rhumerus  -38.07649994 -37.48440552 8.525773048
rradius  -5.16745672e-007 2.214343908e-008 63.95190048
rwrist  -0.0001011603963 -0.001600692281 -177.572998
rhand  -1.770893344e-031 4.446800232 -7.493040085
rfingers  -90 -7.125020027 -90
rthumb  -85.04094474 -8.56897586 -59.7860468
rfemur  -13.25147915 16.36970329 12.27613735
rtibia  -1.782863855 -1.563875318 22.13135529
rfoot  -0.1478542835 -22.62630844 -35.36335754
rtoes  3.84485621 19.6418162 -101.3064096
lfemur  -8.521736145 -17.336092 -21.1455574
ltibia  2.506100655 -1.86105597 15.35417366
lfoot  1.247565269 -22.31448936 38.57675171
ltoes  -8.647520468 -18.10329503 -116.0789779
224
root  34.83022555 36.49335245 -14.97735151 8.361221313 -6.279765606 4.260624409
lowerback  -6.856349945 -1.813120008 -1.778379798
upperback  -4.229800224 -1.824470043 -3.925669909
thorax  -0.5928279757 -0.7200019956 -3.166640043
lowerneck  -0.9614880085 -17.78070068 -12.84109974
upperneck  10.06040001 -24.95150185 14.90369987
head  6.720160007 -11.86270046 4.440810204
lclavicle  0 -4.497500157e-015 -2.743230041e-014
lhumerus  -49.92779922 30.02090073 61.57759857
lradius  -2.057401616e-006 -6.507048965e-006 30.44759941
lwrist  4.824992743e-007 -3.790274832e-007 -28.72879982
lhand  -4.434481161e-031 -37.22290039 -10.67010021
lfingers  90 7.125020027 -90
lthumb  94.9663501 -25.49436754 101.4138811
rclavicle  0 -4.497500157e-015 -2.743230041e-014
rhumerus  -39.03779984 -37.04930115 8.489740372
rradius  -5.16745672e-007 2.214343908e-008 65.31569672
rwrist  -0.0001011603963 -0.001600692281 -178.0119934
rhand  -1.77083316e-031 4.421689987 -7.504950047
rfingers  -90 -7.125020027 -90
rthumb  -85.0527867 -8.5570461 -59.81145403
rfemur  -13.18670177 16.36964798 12.30540276
rtibia  -1.775107145 -1.550295711 22.07898331
rfoot  -0.1216025651 -22.59708023 -35.37256241
rtoes  3.84695699 19.64142051 -101.3126594
lfemur  -8.511774063 -17.38790131 -21.12269402
ltibia  2.477972746 -1.879378676 15.39917946
lfoot  1.242166281 -22.29964447 38.58784485
ltoes  -8.671783709 -18.09198763 -116.1570858
225
root  34.83009338 36.49469811 -14.97773298 8.324831963 -6.258903027 4.243931293
lowerback  -6.866809368 -1.824820042 -1.809409857
upperback  -4.24296999 -1.838140011 -3.900749922
thorax  -0.5992699862 -0.7258129716 -3.124300003
lowerneck  -1.148489952 -17.6114006 -12.79300022
upperneck  10.19830036 -24.70599937 14.81140041
head  6.741839886 -11.73449993 4.426710129
lclavicle  0 -4.497500157e-015 -2.743230041e-014
lhumerus  -49.97740173 30.01199913 61.63159943
lradius  -2.057401616e-006 -6.507048965e-006 30.48760033
lwrist  4.824992743e-007 -3.790274832e-007 -28.60790062
lhand  -4.430770962e-031 -37.15969849 -10.68480015
lfingers  90 7.125020027 -90
lthumb  94.93991806 -25.51110583 101.34765
rclavicle  0 -4.497500157e-015 -2.743230041e-014
rhumerus  -39.980896 -36.69409561 8.35795784
rradius  -5.16745672e-007 2.214343908e-008 66.61869812
rwrist  -0.0001011603963 -0.001600692281 -178.4309998
rhand  -1.770769164e-031 4.394830227 -7.431000233
rfingers  -90 -7.125020027 -90
rthumb  -85.02135534 -8.61925524 -59.83197697
rfemur  -13.1150732 16.38222885 12.33237648
rtibia  -1.764724374 -1.535204411 22.02587318
rfoot  -0.1023488715 -22.57002831 -35.40452194
rtoes  3.832712048 19.64409921 -101.2702832
lfemur  -8.514053345 -17.36791801 -21.09361076
ltibia  2.440057516 -1.872096777 15.45670414
lfoot  1.231756687 -22.35096741 38.54309845
ltoes  -8.681632681 -18.08738637 -116.188805
226
root  34.82942356 36.49598069 -14.97795976 8.295127869 -6.230656624 4.251101494
lowerback  -6.75883007 -1.857079983 -1.847750187
upperback  -4.323140144 -1.884459972 -3.85145998
thorax  -0.7407500148 -0.7465770245 -3.050519943
lowerneck  -1.276540041 -17.42589951 -12.73820019
upperneck  10.37679958 -24.43849754 14.67269993
head  6.760303974 -11.59927845 4.410077095
lclavicle  0 -4.497500157e-015 -2.743230041e-014
lhumerus  -50.14459991 29.90399933 61.67279816
lradius  -2.057401616e-006 -6.507048965e-006 30.56100082
lwrist  4.824992743e-007 -3.790274832e-007 -28.47109985
lhand  -0 -37.13899994 -10.70250034
lfingers  90 7.125020027 -90
lthumb  94.93404325 -25.52919997 101.3271377
rclavicle  0 -4.497500157e-015 -2.743230041e-014
rhumerus  -40.80699921 -36.22100067 8.184700012
rradius  -5.16745672e-007 2.214343908e-008 67.7609024
rwrist  -0.0001011603963 -0.001600692281 -179.1459961
rhand  -1.770694731e-031 4.363379955 -7.394499779
rfingers  -90 -7.125020027 -90
rthumb  -85.01009337 -8.648751005 -59.85983484
rfemur  -13.07890415 16.34705353 12.33832073
rtibia  -1.766254306 -1.541226983 22.03031921
rfoot  -0.1097862497 -22.59571075 -35.40678406
rtoes  3.841579963 19.64243285 -101.296663
lfemur  -8.436593056 -17.32419777 -21.12418747
ltibia  2.475782633 -1.837290287 15.37730312
lfoot  1.228764772 -22.39155388 38.53176117
ltoes  -8.667908231 -18.09379639 -116.1446068
